# xmcd
#
# Track frame offsets: 
#        150
#        9486
#        19994
#        28063
#        37987
#        47799
#        62513
#        71796
#        81926
#        90612
#        99970
#
# Disc length: 1461 seconds
#
# Revision: 0
# Processed by: cddbd v1.5.2PL0 Copyright (c) Steve Scherf et al.
# Submitted via: ExactAudioCopy v0.95b3
#
DISCID=8505b30b
DTITLE=Dick Dale  - Mr. Eliminator - 1964
DYEAR=1900
DGENRE=
TTITLE0=Mr. Eliminator
TTITLE1=50 Miles To Go
TTITLE2=Flashing Eyes
TTITLE3=Taco Wagon
TTITLE4=The Squirrel
TTITLE5=The Victor
TTITLE6=Blond In The 406
TTITLE7=Firing Up
TTITLE8=My X-KE
TTITLE9=Nitrol Fuel
TTITLE10=Hot Rod Alley
EXTD=
EXTT0=
EXTT1=
EXTT2=
EXTT3=
EXTT4=
EXTT5=
EXTT6=
EXTT7=
EXTT8=
EXTT9=
EXTT10=
PLAYORDER=
